# xmcd CD database file
#
# Track frame offsets:
#	150
#	27747
#	56150
#	71905
#
# Disc length: 1326 seconds
#
# Revision: 2
# Processed by: cddbd v1.5.2PL0 Copyright (c) Steve Scherf et al.
# Submitted via: CDex 1.70beta2
#
DISCID=3d052c04
DTITLE=SBK (スケボーキング) - Finally
DYEAR=2000
DGENRE=Rock
TTITLE0=Finally feat. 坂本美雨
TTITLE1=Finally-Jay・Rock’s Freestylers Mix-
TTITLE2=トピックス
TTITLE3=Finally-instrumental-
EXTD=YEAR: 2000
EXTT0=
EXTT1=
EXTT2=
EXTT3=
PLAYORDER=
